<?xml version="1.0" encoding="UTF-8"?>
<svg version="1.1" xmlns="http://www.w3.org/2000/svg" width="32" height="32">
<path d="M0 0 C4.62 0 9.24 0 14 0 C15.67024973 4.17562432 16.24889914 5.7103166 16.1953125 9.86328125 C16.18886719 10.74951172 16.18242187 11.63574219 16.17578125 12.54882812 C16.15902344 13.46083984 16.14226563 14.37285156 16.125 15.3125 C16.11597656 16.24384766 16.10695313 17.17519531 16.09765625 18.13476562 C16.07418263 20.4234436 16.04134729 22.71158672 16 25 C15.34 25 14.68 25 14 25 C14 25.66 14 26.32 14 27 C9.38 27 4.76 27 0 27 C0 26.34 0 25.68 0 25 C-0.66 25 -1.32 25 -2 25 C-2.05834353 21.77090994 -2.09371115 18.54195662 -2.125 15.3125 C-2.14175781 14.40048828 -2.15851562 13.48847656 -2.17578125 12.54882812 C-2.18222656 11.66259766 -2.18867187 10.77636719 -2.1953125 9.86328125 C-2.20578613 9.05157471 -2.21625977 8.23986816 -2.22705078 7.40356445 C-2 5 -2 5 0 0 Z M1 4 C1 4.33 1 4.66 1 5 C4.96 5 8.92 5 13 5 C13 4.67 13 4.34 13 4 C9.04 4 5.08 4 1 4 Z M0 7 C0 12.28 0 17.56 0 23 C4.62 23 9.24 23 14 23 C14 17.72 14 12.44 14 7 C9.38 7 4.76 7 0 7 Z M1 24 C1 24.33 1 24.66 1 25 C4.96 25 8.92 25 13 25 C13 24.67 13 24.34 13 24 C9.04 24 5.08 24 1 24 Z " fill="#000000" transform="translate(9,3)"/>
<path d="M0 0 C0.33 1.32 0.66 2.64 1 4 C1.66 4.33 2.32 4.66 3 5 C1.68775452 8.93673644 0.08089673 11.22719294 -3 14 C-2.67 12.02 -2.34 10.04 -2 8 C-2.99 7.67 -3.98 7.34 -5 7 C-3.35 4.69 -1.7 2.38 0 0 Z " fill="#000000" transform="translate(17,11)"/>
</svg>
